<svg width="100" height="98" viewBox="0 0 100 98" fill="none" xmlns="http://www.w3.org/2000/svg">
<g id="&#235;&#172;&#184;&#236;&#157;&#152;&#236;&#149;&#132;&#236;&#157;&#180;&#236;&#189;&#152;">
<path id="Vector" d="M84.375 30.625H65.625C63.1394 30.6274 60.7562 31.5962 58.9986 33.3186C57.241 35.0411 56.2525 37.3766 56.25 39.8125V58.1875C56.2517 59.8115 56.9107 61.3684 58.0824 62.5167C59.2542 63.6651 60.8429 64.3109 62.5 64.3125V85.75C62.5017 87.374 63.1607 88.9309 64.3324 90.0792C65.5042 91.2276 67.0929 91.8734 68.75 91.875H81.25C82.9071 91.8734 84.4958 91.2276 85.6676 90.0792C86.8393 88.9309 87.4983 87.374 87.5 85.75V64.3125C89.1571 64.3109 90.7458 63.6651 91.9176 62.5167C93.0893 61.3684 93.7483 59.8115 93.75 58.1875V39.8125C93.7475 37.3766 92.759 35.0411 91.0014 33.3186C89.2438 31.5962 86.8606 30.6274 84.375 30.625ZM87.5 58.1875H81.25V85.75H68.75V58.1875H62.5V39.8125C62.5 39.0003 62.8292 38.2213 63.4153 37.647C64.0013 37.0727 64.7962 36.75 65.625 36.75H84.375C85.2038 36.75 85.9987 37.0727 86.5847 37.647C87.1708 38.2213 87.5 39.0003 87.5 39.8125V58.1875ZM62.5 15.3125C62.5 12.8897 63.2331 10.5213 64.6066 8.50677C65.9801 6.49227 67.9324 4.92215 70.2165 3.99498C72.5005 3.06781 75.0139 2.82522 77.4386 3.29789C79.8634 3.77055 82.0907 4.93725 83.8388 6.65045C85.587 8.36364 86.7775 10.5464 87.2598 12.9226C87.7421 15.2989 87.4946 17.762 86.5485 20.0004C85.6024 22.2388 84.0002 24.152 81.9446 25.498C79.889 26.8441 77.4723 27.5625 75 27.5625C71.6858 27.5593 68.5083 26.2676 66.1648 23.971C63.8213 21.6744 62.5033 18.5604 62.5 15.3125ZM68.75 15.3125C68.75 16.5239 69.1166 17.7081 69.8033 18.7154C70.4901 19.7226 71.4662 20.5077 72.6082 20.9713C73.7503 21.4349 75.0069 21.5562 76.2193 21.3198C77.4317 21.0835 78.5453 20.5001 79.4194 19.6435C80.2935 18.7869 80.8887 17.6956 81.1299 16.5074C81.3711 15.3193 81.2473 14.0878 80.7742 12.9686C80.3012 11.8494 79.5001 10.8928 78.4723 10.2198C77.4445 9.54673 76.2361 9.18751 75 9.18751C73.3429 9.18913 71.7542 9.83496 70.5824 10.9833C69.4107 12.1316 68.7517 13.6886 68.75 15.3125ZM43.75 49V39.8125C43.7475 37.3766 42.759 35.0411 41.0014 33.3186C39.2438 31.5962 36.8606 30.6274 34.375 30.625H15.625C13.1394 30.6274 10.7562 31.5962 8.99862 33.3186C7.241 35.0411 6.25248 37.3766 6.25 39.8125V49H0V55.125H50V49H43.75ZM12.5 39.8125C12.5 39.0003 12.8292 38.2213 13.4153 37.647C14.0013 37.0727 14.7962 36.75 15.625 36.75H34.375C35.2038 36.75 35.9987 37.0727 36.5847 37.647C37.1708 38.2213 37.5 39.0003 37.5 39.8125V49H12.5V39.8125ZM12.5 15.3125C12.5 12.8897 13.2331 10.5213 14.6066 8.50677C15.9801 6.49227 17.9324 4.92215 20.2165 3.99498C22.5005 3.06781 25.0139 2.82522 27.4386 3.29789C29.8634 3.77055 32.0907 4.93725 33.8388 6.65045C35.587 8.36364 36.7775 10.5464 37.2598 12.9226C37.7421 15.2989 37.4946 17.762 36.5485 20.0004C35.6024 22.2388 34.0002 24.152 31.9446 25.498C29.889 26.8441 27.4723 27.5625 25 27.5625C21.6858 27.5593 18.5083 26.2676 16.1648 23.971C13.8213 21.6744 12.5033 18.5604 12.5 15.3125ZM18.75 15.3125C18.75 16.5239 19.1166 17.7081 19.8033 18.7154C20.4901 19.7226 21.4662 20.5077 22.6082 20.9713C23.7503 21.4349 25.0069 21.5562 26.2193 21.3198C27.4317 21.0835 28.5453 20.5001 29.4194 19.6435C30.2935 18.7869 30.8888 17.6956 31.1299 16.5074C31.3711 15.3193 31.2473 14.0878 30.7742 12.9686C30.3012 11.8494 29.5001 10.8928 28.4723 10.2198C27.4445 9.54673 26.2361 9.18751 25 9.18751C23.3429 9.18913 21.7542 9.83496 20.5824 10.9833C19.4107 12.1316 18.7517 13.6886 18.75 15.3125Z" fill="#699BF7"/>
</g>
</svg>
