<svg width="45" height="46" viewBox="0 0 45 46" fill="none" xmlns="http://www.w3.org/2000/svg">
<g id="Vector">
<path id="Vector_2" d="M44.9738 34.2424C44.5726 37.2912 43.0753 40.0898 40.7615 42.1154C38.4477 44.1409 35.4757 45.255 32.4006 45.2495C14.5353 45.2495 2.03598e-05 30.7144 2.03598e-05 12.8492C-0.00549219 9.77405 1.10859 6.80207 3.13417 4.48831C5.15976 2.17455 7.95834 0.677251 11.0072 0.276057C11.7782 0.181918 12.5589 0.339647 13.2329 0.725698C13.9069 1.11175 14.4379 1.70542 14.7468 2.41808L19.4989 13.0269V13.0539C19.7353 13.5995 19.833 14.1951 19.7831 14.7875C19.7332 15.38 19.5374 15.9509 19.2131 16.4492C19.1726 16.51 19.1298 16.5662 19.0848 16.6225L14.4003 22.1755C16.0855 25.6001 19.6676 29.1506 23.1372 30.8404L28.6138 26.1806C28.6675 26.1353 28.7239 26.0933 28.7825 26.0546C29.2804 25.7225 29.8533 25.5197 30.4493 25.4647C31.0452 25.4097 31.6455 25.5042 32.1958 25.7396L32.2251 25.7531L42.825 30.5028C43.5389 30.8106 44.1341 31.3412 44.5214 32.0152C44.9087 32.6893 45.0674 33.4706 44.9738 34.2424Z" fill="#4220A5"/>
</g>
</svg>
