<svg width="60" height="60" viewBox="0 0 60 60" fill="none" xmlns="http://www.w3.org/2000/svg">
<g id="pajamas:hamburger" clip-path="url(#clip0_211_734)">
<path id="Vector" fill-rule="evenodd" clip-rule="evenodd" d="M0 14.0625C0 13.3166 0.296316 12.6012 0.823762 12.0738C1.35121 11.5463 2.06658 11.25 2.8125 11.25H57.1875C57.9334 11.25 58.6488 11.5463 59.1762 12.0738C59.7037 12.6012 60 13.3166 60 14.0625C60 14.8084 59.7037 15.5238 59.1762 16.0512C58.6488 16.5787 57.9334 16.875 57.1875 16.875H2.8125C2.06658 16.875 1.35121 16.5787 0.823762 16.0512C0.296316 15.5238 0 14.8084 0 14.0625ZM0 30C0 29.2541 0.296316 28.5387 0.823762 28.0113C1.35121 27.4838 2.06658 27.1875 2.8125 27.1875H57.1875C57.9334 27.1875 58.6488 27.4838 59.1762 28.0113C59.7037 28.5387 60 29.2541 60 30C60 30.7459 59.7037 31.4613 59.1762 31.9887C58.6488 32.5162 57.9334 32.8125 57.1875 32.8125H2.8125C2.06658 32.8125 1.35121 32.5162 0.823762 31.9887C0.296316 31.4613 0 30.7459 0 30ZM2.8125 43.125C2.06658 43.125 1.35121 43.4213 0.823762 43.9488C0.296316 44.4762 0 45.1916 0 45.9375C0 46.6834 0.296316 47.3988 0.823762 47.9262C1.35121 48.4537 2.06658 48.75 2.8125 48.75H57.1875C57.9334 48.75 58.6488 48.4537 59.1762 47.9262C59.7037 47.3988 60 46.6834 60 45.9375C60 45.1916 59.7037 44.4762 59.1762 43.9488C58.6488 43.4213 57.9334 43.125 57.1875 43.125H2.8125Z" fill="#699BF7"/>
</g>
<defs>
<clipPath id="clip0_211_734">
<rect width="60" height="60" fill="white"/>
</clipPath>
</defs>
</svg>
