<svg width="50" height="45" viewBox="0 0 50 45" fill="none" xmlns="http://www.w3.org/2000/svg">
<g id="Vector">
<path id="Vector_2" d="M24.9976 0C38.8071 0 50 8.54349 50 19.0853C50 29.6247 38.8071 38.1682 25 38.1682C23.6252 38.1689 22.2517 38.0832 20.8881 37.9117L10.3929 44.6341C9.2 45.252 8.77857 45.1844 9.26905 43.6711L11.3929 35.095C4.53571 31.6907 0 25.7914 0 19.0853C0 8.54582 11.1905 0 25 0H24.9976ZM39.0643 18.7938L42.5643 15.4734C42.7662 15.268 42.8789 14.9939 42.8786 14.7087C42.8782 14.4236 42.7649 14.1497 42.5624 13.9447C42.3599 13.7398 42.0842 13.6198 41.7932 13.6101C41.5022 13.6004 41.2187 13.7016 41.0024 13.8925L36.4119 18.2435V14.648C36.4119 14.3561 36.2935 14.0762 36.0827 13.8698C35.872 13.6634 35.5861 13.5474 35.2881 13.5474C34.99 13.5474 34.7042 13.6634 34.4934 13.8698C34.2827 14.0762 34.1643 14.3561 34.1643 14.648V20.6102C34.1223 20.7803 34.1223 20.9578 34.1643 21.1279V24.4833C34.1643 24.7751 34.2827 25.0551 34.4934 25.2615C34.7042 25.4679 34.99 25.5838 35.2881 25.5838C35.5861 25.5838 35.872 25.4679 36.0827 25.2615C36.2935 25.0551 36.4119 24.7751 36.4119 24.4833V21.3051L37.4286 20.3421L40.8286 25.0825C40.9135 25.2009 41.0213 25.3017 41.146 25.3792C41.2707 25.4567 41.4097 25.5094 41.5552 25.5343C41.7007 25.5592 41.8497 25.5558 41.9939 25.5243C42.138 25.4928 42.2744 25.4338 42.3952 25.3507C42.5161 25.2675 42.619 25.1619 42.6982 25.0398C42.7774 24.9177 42.8312 24.7815 42.8566 24.6391C42.882 24.4966 42.8786 24.3506 42.8464 24.2094C42.8142 24.0683 42.7539 23.9347 42.6691 23.8164L39.0643 18.7915V18.7938ZM32.0214 23.2801H28.5452V14.683C28.5319 14.4001 28.4078 14.1332 28.1988 13.9377C27.9897 13.7421 27.7117 13.633 27.4226 13.633C27.1335 13.633 26.8555 13.7421 26.6465 13.9377C26.4374 14.1332 26.3133 14.4001 26.3 14.683V24.3807C26.3 24.9869 26.8 25.4812 27.4214 25.4812H32.0214C32.3195 25.4812 32.6053 25.3653 32.8161 25.1589C33.0268 24.9525 33.1452 24.6725 33.1452 24.3807C33.1452 24.0888 33.0268 23.8088 32.8161 23.6024C32.6053 23.396 32.3195 23.2801 32.0214 23.2801ZM18.0762 20.7361L19.7333 16.7535L21.2524 20.7338L18.0762 20.7361ZM24.0833 21.8717L24.0881 21.8344C24.0875 21.5571 23.9794 21.2904 23.7857 21.0882L21.2952 14.5594C21.1908 14.2482 20.992 13.9757 20.7252 13.7782C20.4585 13.5807 20.1365 13.4677 19.8024 13.4541C19.4658 13.4527 19.1368 13.5516 18.859 13.7378C18.5813 13.924 18.368 14.1886 18.2476 14.4964L14.2905 23.9982C14.1778 24.2685 14.1793 24.5715 14.2947 24.8407C14.4101 25.1098 14.63 25.323 14.906 25.4334C15.1819 25.5438 15.4913 25.5423 15.7662 25.4293C16.041 25.3163 16.2587 25.1009 16.3714 24.8307L17.1619 22.935H22.0905L22.8 24.8004C22.8484 24.9398 22.9249 25.0683 23.0249 25.1783C23.125 25.2882 23.2465 25.3774 23.3824 25.4405C23.5182 25.5036 23.6657 25.5394 23.8159 25.5457C23.9661 25.552 24.1162 25.5287 24.257 25.4772C24.3979 25.4257 24.5268 25.347 24.6361 25.2459C24.7454 25.1447 24.8328 25.0231 24.8932 24.8882C24.9536 24.7533 24.9857 24.6079 24.9877 24.4607C24.9897 24.3134 24.9615 24.1673 24.9048 24.0309L24.0833 21.8717ZM16.1738 14.6946C16.1738 14.4031 16.0557 14.1235 15.8455 13.9172C15.6353 13.7109 15.35 13.5947 15.0524 13.594H7.32619C7.02814 13.594 6.74229 13.71 6.53154 13.9164C6.32078 14.1228 6.20238 14.4027 6.20238 14.6946C6.20238 14.9865 6.32078 15.2664 6.53154 15.4728C6.74229 15.6792 7.02814 15.7952 7.32619 15.7952H10.0881V24.5066C10.0881 24.7985 10.2065 25.0784 10.4173 25.2848C10.628 25.4912 10.9139 25.6072 11.2119 25.6072C11.51 25.6072 11.7958 25.4912 12.0066 25.2848C12.2173 25.0784 12.3357 24.7985 12.3357 24.5066V15.7952H15.05C15.3481 15.7952 15.6339 15.6792 15.8447 15.4728C16.0554 15.2664 16.1738 14.9865 16.1738 14.6946Z" fill="#FFC700"/>
</g>
</svg>
