<svg width="100" height="80" viewBox="0 0 100 80" fill="none" xmlns="http://www.w3.org/2000/svg">
<g id="&#236;&#167;&#128;&#235;&#143;&#132;&#236;&#149;&#132;&#236;&#157;&#180;&#236;&#189;&#152;">
<path id="Vector" d="M81.095 4.19582C84.36 6.47123 86.61 10.1465 87.53 13.9952C87.6414 14.0265 87.75 14.0651 87.855 14.1107L98.08 18.3149C98.6515 18.5482 99.136 18.9219 99.4762 19.3921C99.8165 19.8622 99.9982 20.4091 100 20.968V75.9288C99.9963 76.3854 99.8737 76.835 99.6418 77.2423C99.4098 77.6497 99.0748 78.0038 98.6631 78.2767C98.2513 78.5497 97.774 78.7342 97.2686 78.8157C96.7632 78.8971 96.2434 78.8735 95.75 78.7464L67.405 71.6358L33.705 79.893C33.097 80.0415 32.4543 80.0353 31.85 79.8752L2.37 72.0758C1.6886 71.8979 1.08995 71.5294 0.662977 71.025C0.236005 70.5205 0.0034983 69.9072 0 69.2759L0 13.3286C0 11.3731 2.14 9.96877 4.275 10.5198L32.785 17.9016L47.275 13.9596C47.4744 13.9073 47.6785 13.8701 47.885 13.8485C48.445 10.9332 50.01 8.13334 52.635 5.40463C55.75 2.1604 61.215 0.258307 66.54 0.0316553C72.065 -0.203885 76.285 0.844935 81.09 4.19138L81.095 4.19582ZM6.665 17.2527V67.0939L31.015 73.5334V23.5501L6.665 17.2527ZM47.71 19.9814L37.68 22.7057V72.8313L63.005 66.6361V51.9926C63.005 50.375 64.5 49.064 66.34 49.064C68.18 49.064 69.67 50.375 69.67 51.9971V66.1162L93.335 72.0491V22.8301L87.735 20.5192C87.64 21.008 87.52 21.488 87.37 21.9546C86.2827 25.3622 84.4587 28.5488 82 31.3362L69.615 45.082C69.2889 45.4434 68.8724 45.7322 68.3987 45.9254C67.925 46.1186 67.4071 46.2109 66.8861 46.195C66.3652 46.179 65.8557 46.0552 65.398 45.8335C64.9404 45.6117 64.5473 45.2981 64.25 44.9176L52.675 30.0163C50.765 27.6432 49.425 25.5277 48.67 23.6345C48.1961 22.4529 47.874 21.2274 47.71 19.9814ZM66.86 5.88904C63.23 6.04459 59.5 7.34228 57.725 9.1866C55.59 11.4087 54.54 13.4885 54.33 15.5951C54.08 18.1327 54.25 19.9237 54.96 21.6969C55.485 23.0079 56.53 24.67 58.145 26.6743L67.2 38.3269L76.75 27.7276C78.6766 25.5391 80.1049 23.0378 80.955 20.3636C82.155 16.6306 80.345 11.1465 76.955 8.79107C73.48 6.36901 70.855 5.71572 66.865 5.88904H66.86ZM67.55 8.98662C73.07 8.98662 77.55 12.9197 77.55 17.7727C77.5428 18.9333 77.2784 20.0813 76.7719 21.151C76.2654 22.2208 75.5267 23.1913 74.598 24.0073C73.6694 24.8232 72.5689 25.4685 71.3596 25.9063C70.1503 26.3441 68.8558 26.5658 67.55 26.5588C62.03 26.5588 57.55 22.6257 57.55 17.7727C57.55 12.9197 62.03 8.98662 67.55 8.98662ZM67.55 14.844C67.1147 14.8417 66.6831 14.9156 66.2799 15.0615C65.8767 15.2074 65.5098 15.4225 65.2001 15.6944C64.8904 15.9664 64.644 16.2899 64.475 16.6465C64.306 17.0031 64.2176 17.3858 64.215 17.7727C64.215 19.3904 65.71 20.7014 67.55 20.7014C67.9853 20.7031 68.4168 20.6287 68.8197 20.4822C69.2227 20.3358 69.5892 20.1202 69.8985 19.8478C70.2077 19.5755 70.4535 19.2516 70.6219 18.8948C70.7903 18.538 70.878 18.1552 70.88 17.7683C70.8734 16.9883 70.5192 16.2426 69.895 15.6944C69.2707 15.1463 68.4275 14.8405 67.55 14.844Z" fill="#699BF7"/>
</g>
</svg>
